<?xml version="1.0" encoding="UTF-8" standalone="no"?>
<svg
   version="1.0"
   width="362pt"
   height="511.6962pt"
   viewBox="0 0 362 511.6962"
   preserveAspectRatio="xMidYMid meet"
   id="svg298"
   sodipodi:docname="2.svg"
   inkscape:version="1.1 (c68e22c387, 2021-05-23)"
   xmlns:inkscape="http://www.inkscape.org/namespaces/inkscape"
   xmlns:sodipodi="http://sodipodi.sourceforge.net/DTD/sodipodi-0.dtd"
   xmlns="http://www.w3.org/2000/svg"
   xmlns:svg="http://www.w3.org/2000/svg">
  <defs
     id="defs302" />
  <sodipodi:namedview
     id="namedview300"
     pagecolor="#ffffff"
     bordercolor="#666666"
     borderopacity="1.0"
     inkscape:pageshadow="2"
     inkscape:pageopacity="0.04313725"
     inkscape:pagecheckerboard="true"
     inkscape:document-units="pt"
     showgrid="false"
     fit-margin-top="0"
     fit-margin-left="5.8286709e-16"
     fit-margin-right="0"
     fit-margin-bottom="0"
     inkscape:zoom="0.76171875"
     inkscape:cx="226.46154"
     inkscape:cy="343.95897"
     inkscape:window-width="1344"
     inkscape:window-height="728"
     inkscape:window-x="182"
     inkscape:window-y="17"
     inkscape:window-maximized="0"
     inkscape:current-layer="svg298"
     lock-margins="false"
     showborder="true" />
  <rect
     style="fill:none;stroke-width:0.75"
     id="rect899"
     width="280.61539"
     height="385.96924"
     x="112.07693"
     y="61.878876"
     ry="0" />
  <path
     d="m 171,0.29621056 c -1.9,0.2 -7.8,0.90000004 -13,1.50000004 C 81.300001,10.396211 31.100001,56.89621 16.600001,132.69621 c -2.3,12 -5.7,36.99999 -5,36.99999 0.2,0 27.9,2.7 61.6,6 33.699999,3.3 61.599999,6 61.899999,6 0.4,0 0.9,-4.8 1.3,-10.8 1.7,-26.09999 6.3,-40.99999 15.9,-51.79999 8.2,-9 19.9,-13.4 36.2,-13.4 16.2,0 28.9,4.5 36.8,12.9 8.3,8.9 11.7,18.9 11.7,34.99999 0,12.1 -2,20.1 -8,32.7 -10.5,21.70001 -29.2,42.40001 -80.5,88.70001 -70.999999,64.2 -101.099999,99 -123.099999,142.5 -13.9,27.4 -20.2,50.2 -24.800001,89.4 l -0.6,4.8 h 181 181 v -58.5 -58.5 h -85.5 c -47.2,0 -85.5,-0.4 -85.5,-0.9 0,-1.4 21.9,-22.2 46,-43.6 40.2,-35.8 58.9,-54.5 75.8,-75.4 35.6,-44.2 52.6,-93.20001 48.4,-139.5 C 354.7,63.696211 304.7,14.096211 227,2.1962106 217,0.69621056 178.9,-0.60378944 171,0.29621056 Z"
     id="path1996"
     style="fill:#000000;stroke:none;stroke-width:0.1" />
</svg>
