<?xml version="1.0" encoding="UTF-8" standalone="no"?>
<svg
   version="1.0"
   width="362pt"
   height="511.6962pt"
   viewBox="0 0 362 511.6962"
   preserveAspectRatio="xMidYMid meet"
   id="svg298"
   sodipodi:docname="3.svg"
   inkscape:version="1.1 (c68e22c387, 2021-05-23)"
   xmlns:inkscape="http://www.inkscape.org/namespaces/inkscape"
   xmlns:sodipodi="http://sodipodi.sourceforge.net/DTD/sodipodi-0.dtd"
   xmlns="http://www.w3.org/2000/svg"
   xmlns:svg="http://www.w3.org/2000/svg">
  <defs
     id="defs302" />
  <sodipodi:namedview
     id="namedview300"
     pagecolor="#ffffff"
     bordercolor="#666666"
     borderopacity="1.0"
     inkscape:pageshadow="2"
     inkscape:pageopacity="0.04313725"
     inkscape:pagecheckerboard="true"
     inkscape:document-units="pt"
     showgrid="false"
     fit-margin-top="0"
     fit-margin-left="5.8286709e-16"
     fit-margin-right="0"
     fit-margin-bottom="0"
     inkscape:zoom="0.76171875"
     inkscape:cx="226.46154"
     inkscape:cy="343.95897"
     inkscape:window-width="1344"
     inkscape:window-height="728"
     inkscape:window-x="32"
     inkscape:window-y="27"
     inkscape:window-maximized="0"
     inkscape:current-layer="svg298"
     lock-margins="false"
     showborder="true" />
  <rect
     style="fill:none;stroke-width:0.75"
     id="rect899"
     width="280.61539"
     height="385.96924"
     x="112.07693"
     y="61.878876"
     ry="0" />
  <path
     d="M 154.04006,1.3612456 C 76.940056,9.461246 27.340056,56.161246 9.540053,137.26125 c -1.5999998,7.4 -2.6999998,13.6 -2.4999998,13.8 0.6,0.6 117.6000068,19.4 118.0000068,19 0.2,-0.2 0.8,-4.8 1.5,-10.3 3.9,-33 17.1,-50.3 40.9,-53.7 15.8,-2.3 31.5,2.6 39.1,12.3 12.3,15.6 9.9,41.4 -5.2,55.5 -9.1,8.49999 -16,10.39999 -46.8,12.49999 -9.1,0.6 -16.7,1.3 -16.9,1.5 -0.5,0.5 -16,107.8 -15.6,108.2 0.2,0.2 7.2,-1.5 15.7,-3.7 22,-5.7 31.8,-7.4 44.3,-7.4 12.5,0 19.9,1.9 28.9,7.7 14.7,9.4 22.5,25.1 23.4,47.2 1.6,40 -20.2,66.4 -55,66.4 -31.8,0 -50.8,-20.7 -55.7,-60.4 -0.6,-4.9 -1.2,-9 -1.3,-9.2 -0.2,-0.1 -27.300004,2.8 -60.300004,6.7 -33,3.8 -60.3000028,6.9 -60.7000028,6.9 -0.8,0 -0.2,5.5 2.3,20 10.8999998,63.6 48.2000028,110.9 102.4000068,130 24.1,8.5 43.3,11.4 73.5,11.4 24.5,0 33.3,-1.1 53.6,-6.4 47.7,-12.4 88.5,-43.6 110.6,-84.7 22.3,-41.3 24.6,-90.6 6.2,-129.8 -10.4,-22.3 -30.3,-43.1 -52.2,-54.7 -4.2,-2.3 -7.9,-4.3 -8.2,-4.5 -0.3,-0.3 0.9,-1.4 2.5,-2.6 5.5,-3.8 21.6,-20.1 26.5,-26.7 14.3,-19.3 21,-39.99999 21,-65.19999 0,-63.400004 -50.2,-118.300004 -121.5,-132.7000044 -19.4,-3.9 -44.2,-5.09999998 -64,-3 z"
     id="path2287"
     style="fill:#000000;stroke:none;stroke-width:0.1" />
</svg>
