<?xml version="1.0" encoding="UTF-8" standalone="no"?>
<svg
   version="1.0"
   width="362pt"
   height="511.6962pt"
   viewBox="0 0 362 511.6962"
   preserveAspectRatio="xMidYMid meet"
   id="svg298"
   sodipodi:docname="4.svg"
   inkscape:version="1.1 (c68e22c387, 2021-05-23)"
   xmlns:inkscape="http://www.inkscape.org/namespaces/inkscape"
   xmlns:sodipodi="http://sodipodi.sourceforge.net/DTD/sodipodi-0.dtd"
   xmlns="http://www.w3.org/2000/svg"
   xmlns:svg="http://www.w3.org/2000/svg">
  <defs
     id="defs302" />
  <sodipodi:namedview
     id="namedview300"
     pagecolor="#ffffff"
     bordercolor="#666666"
     borderopacity="1.0"
     inkscape:pageshadow="2"
     inkscape:pageopacity="0.04313725"
     inkscape:pagecheckerboard="true"
     inkscape:document-units="pt"
     showgrid="false"
     fit-margin-top="0"
     fit-margin-left="5.8286709e-16"
     fit-margin-right="0"
     fit-margin-bottom="0"
     inkscape:zoom="0.76171875"
     inkscape:cx="226.46154"
     inkscape:cy="343.95897"
     inkscape:window-width="1344"
     inkscape:window-height="728"
     inkscape:window-x="32"
     inkscape:window-y="27"
     inkscape:window-maximized="0"
     inkscape:current-layer="svg298"
     lock-margins="false"
     showborder="true" />
  <rect
     style="fill:none;stroke-width:0.75"
     id="rect899"
     width="280.61539"
     height="385.96924"
     x="112.07693"
     y="61.878876"
     ry="0" />
  <path
     d="m 198.76923,12.184615 c -4.5,7.100001 -50.9,77.700001 -102.9,157.100005 l -94.699999,144.3 v 49.9 50 h 93.999999 94 v 49 49 h 57.5 57.5 v -49 -49 h 28.5 28.5 v -55.5 -55.5 h -28.5 -28.5 v -151.5 -151.5000046 h -48.5 -48.5 z m -9.9,290.000005 c -0.2,0.2 -14.3,0.2 -31.4,0.1 l -30.9,-0.3 24.8,-38.5 c 13.7,-21.2 27.7,-42.8 31.1,-48 l 6.2,-9.5 0.3,47.9 c 0.1,26.4 0.1,48.1 -0.1,48.3 z"
     id="path2384"
     style="fill:#000000;stroke:none;stroke-width:0.1" />
</svg>
