<?xml version="1.0" encoding="UTF-8" standalone="no"?>
<svg
   version="1.0"
   width="362pt"
   height="511.6962pt"
   viewBox="0 0 362 511.6962"
   preserveAspectRatio="xMidYMid meet"
   id="svg298"
   sodipodi:docname="5.svg"
   inkscape:version="1.1 (c68e22c387, 2021-05-23)"
   xmlns:inkscape="http://www.inkscape.org/namespaces/inkscape"
   xmlns:sodipodi="http://sodipodi.sourceforge.net/DTD/sodipodi-0.dtd"
   xmlns="http://www.w3.org/2000/svg"
   xmlns:svg="http://www.w3.org/2000/svg">
  <defs
     id="defs302" />
  <sodipodi:namedview
     id="namedview300"
     pagecolor="#ffffff"
     bordercolor="#666666"
     borderopacity="1.0"
     inkscape:pageshadow="2"
     inkscape:pageopacity="0.04313725"
     inkscape:pagecheckerboard="true"
     inkscape:document-units="pt"
     showgrid="false"
     fit-margin-top="0"
     fit-margin-left="5.8286709e-16"
     fit-margin-right="0"
     fit-margin-bottom="0"
     inkscape:zoom="0.76171875"
     inkscape:cx="226.46154"
     inkscape:cy="343.95897"
     inkscape:window-width="1344"
     inkscape:window-height="728"
     inkscape:window-x="32"
     inkscape:window-y="27"
     inkscape:window-maximized="0"
     inkscape:current-layer="svg298"
     lock-margins="false"
     showborder="true" />
  <rect
     style="fill:none;stroke-width:0.75"
     id="rect899"
     width="280.61539"
     height="385.96924"
     x="112.07693"
     y="61.878876"
     ry="0" />
  <path
     d="m 65.251852,1.4936912 c 0,0.3 -11.9,62.5999998 -26.5,138.3999988 -14.6,75.9 -26.5,138.3 -26.5,138.9 0,0.5 21.7,3.9 48.3,7.6 26.500003,3.7 48.700008,6.9 49.400008,7.1 0.6,0.2 4.5,-3 8.5,-7.1 13.8,-14.3 27.8,-22.8 43.5,-26.5 16.1,-3.9 34.5,-1.6 46.9,5.6 11,6.4 20.1,20.3 24.5,37 2.6,10.1 3.7,34.1 2,46.7 -4.2,31.5 -17.3,51.3 -38.4,58 -8.5,2.7 -23.7,2.7 -32.4,0 -21.2,-6.7 -34.1,-25.9 -38.3,-57.1 l -1.3,-9.3 -3.6,0.5 c -2,0.3 -29.800005,3.2 -61.900008,6.4 l -58.2999996,5.8 0.7,4.5 c 6.5,47.8 26.5999996,89 55.8999996,114.3 26.900003,23.4 59.500008,36.1 101.500008,39.8 82.6,7.2 151.3,-30 184.9,-100.2 15.5,-32.4 21.6,-67.1 18,-103.5 -7.6,-78.1 -56.9,-134.9 -130.4,-150.4 -6.6,-1.4 -15.6,-2.3 -26.5,-2.7 -17.6,-0.6 -28.7,0.4 -42.4,3.8 -4.4,1 -8.1,1.7 -8.3,1.5 -0.2,-0.2 1.3,-9.7 3.3,-21 l 3.7,-20.6 h 89.4 89.3 V 59.993691 0.99369115 h -137.5 c -75.6,0 -137.500008,0.20000005 -137.500008,0.50000005 z"
     id="path2481"
     style="fill:#000000;stroke:none;stroke-width:0.1" />
</svg>
