<?xml version="1.0" encoding="UTF-8" standalone="no"?>
<svg
   version="1.0"
   width="362pt"
   height="511.6962pt"
   viewBox="0 0 362 511.6962"
   preserveAspectRatio="xMidYMid meet"
   id="svg298"
   sodipodi:docname="6.svg"
   inkscape:version="1.1 (c68e22c387, 2021-05-23)"
   xmlns:inkscape="http://www.inkscape.org/namespaces/inkscape"
   xmlns:sodipodi="http://sodipodi.sourceforge.net/DTD/sodipodi-0.dtd"
   xmlns="http://www.w3.org/2000/svg"
   xmlns:svg="http://www.w3.org/2000/svg">
  <defs
     id="defs302" />
  <sodipodi:namedview
     id="namedview300"
     pagecolor="#ffffff"
     bordercolor="#666666"
     borderopacity="1.0"
     inkscape:pageshadow="2"
     inkscape:pageopacity="0.04313725"
     inkscape:pagecheckerboard="true"
     inkscape:document-units="pt"
     showgrid="false"
     fit-margin-top="0"
     fit-margin-left="5.8286709e-16"
     fit-margin-right="0"
     fit-margin-bottom="0"
     inkscape:zoom="0.76171875"
     inkscape:cx="226.46154"
     inkscape:cy="343.95897"
     inkscape:window-width="1344"
     inkscape:window-height="728"
     inkscape:window-x="32"
     inkscape:window-y="27"
     inkscape:window-maximized="0"
     inkscape:current-layer="svg298"
     lock-margins="false"
     showborder="true" />
  <rect
     style="fill:none;stroke-width:0.75"
     id="rect899"
     width="280.61539"
     height="385.96924"
     x="112.07693"
     y="61.878876"
     ry="0" />
  <path
     d="m 172.96043,0.848647 c -60,6.2 -105.100005,34.6 -134.800005,85 C 19.660421,117.24865 7.7604214,157.64865 2.2604214,208.54865 c -2.40000002,22.3 -2.40000002,79.5 0,101.3 7.3,65.2 24.1999996,111.2 53.9000036,146.5 31.6,37.6 81.400005,57.5 137.800005,55.2 47.5,-2.1 86.3,-18.1 116.5,-48.2 12.9,-12.9 21.8,-25.5 30.4,-43 10.4,-21 15.8,-40.1 18.1,-64 7.6,-81.1 -30.9,-148.9 -100.3,-176.9 -18.3,-7.4 -37.2,-10.9 -58.2,-11 -23.3,0 -41.8,4.2 -60.2,13.8 -6.5,3.4 -8.3,4 -8.3,2.7 0,-3.5 3.2,-20.1 5.6,-28.8 9.8,-36.5 28.1,-53.1 56.2,-51 10.2,0.7 16.2,3 22,8.2 7.8,7 11.8,17.2 14.2,36 0.6,4.9 1.3,9.1 1.4,9.2 0.5,0.5 120.6,-12.4 121.2,-13 0.9,-0.9 -2.2,-18 -5.6,-31.4 -13.7,-53.300003 -47.5,-90.500003 -96.4,-106.200003 -15.5,-5 -30.5,-7.2 -51.1,-7.6 -9.9,-0.2 -21.8,0 -26.5,0.5 z m 25.3,264.500003 c 18.1,4.7 29.3,17.4 35.5,40.3 2.4,9 2.6,11.2 2.6,31.2 0.1,19 -0.2,22.5 -2.2,30.4 -4.5,18 -12.1,29 -24,34.8 -6.4,3.2 -7.1,3.3 -18.7,3.3 -11.8,0 -12.1,-0.1 -19.9,-3.8 -9.8,-4.6 -19.4,-14 -24.8,-24.2 -10.5,-19.8 -13.5,-51.4 -7.3,-75 3.7,-13.9 12.6,-26.6 22.9,-32.5 9.9,-5.6 24.5,-7.5 35.9,-4.5 z"
     id="path2578"
     style="fill:#000000;stroke:none;stroke-width:0.1" />
</svg>
