<?xml version="1.0" encoding="UTF-8" standalone="no"?>
<svg
   version="1.0"
   width="362pt"
   height="511.6962pt"
   viewBox="0 0 362 511.6962"
   preserveAspectRatio="xMidYMid meet"
   id="svg298"
   sodipodi:docname="8.svg"
   inkscape:version="1.1 (c68e22c387, 2021-05-23)"
   xmlns:inkscape="http://www.inkscape.org/namespaces/inkscape"
   xmlns:sodipodi="http://sodipodi.sourceforge.net/DTD/sodipodi-0.dtd"
   xmlns="http://www.w3.org/2000/svg"
   xmlns:svg="http://www.w3.org/2000/svg">
  <defs
     id="defs302" />
  <sodipodi:namedview
     id="namedview300"
     pagecolor="#ffffff"
     bordercolor="#666666"
     borderopacity="1.0"
     inkscape:pageshadow="2"
     inkscape:pageopacity="0.04313725"
     inkscape:pagecheckerboard="true"
     inkscape:document-units="pt"
     showgrid="false"
     fit-margin-top="0"
     fit-margin-left="5.8286709e-16"
     fit-margin-right="0"
     fit-margin-bottom="0"
     inkscape:zoom="0.76171875"
     inkscape:cx="226.46154"
     inkscape:cy="343.95897"
     inkscape:window-width="1344"
     inkscape:window-height="728"
     inkscape:window-x="32"
     inkscape:window-y="27"
     inkscape:window-maximized="0"
     inkscape:current-layer="svg298"
     lock-margins="false"
     showborder="true" />
  <rect
     style="fill:none;stroke-width:0.75"
     id="rect899"
     width="280.61539"
     height="385.96924"
     x="112.07693"
     y="61.878876"
     ry="0" />
  <path
     d="M 154.80153,-0.03774492 C 104.72757,4.9622551 64.953291,24.062255 39.751957,54.862255 c -16.10694,19.8 -25.420477,45.300005 -27.064042,73.300005 -1.533994,28.49999 5.697693,53.59999 21.585491,75.29999 6.135977,8.3 22.352487,23.8 28.269322,27 1.972279,1 3.506274,2.1 3.506274,2.4 0,0.3 -2.958419,2.5 -6.574262,4.9 -15.01123,10 -33.638303,30.4 -42.513555,46.7 -19.1749281,34.9 -21.8046326,84.9 -6.574261,124.3 8.546539,22.3 19.722783,38.4 38.021143,55.2 24.434338,22.2 54.456793,36.5 90.067383,42.8 66.83832,11.7 129.2938,-2.3 170.4925,-38.3 30.02246,-26.2 47.44425,-60.4 51.93666,-102.1 4.9307,-45.6 -9.53268,-85.9 -41.1987,-115 -5.36898,-5 -13.14852,-11.2 -17.20265,-13.8 l -7.34126,-4.8 12.81981,-11.7 c 18.29836,-16.8 28.15975,-32.3 34.18616,-53.8 8.3274,-29.5 3.83498,-67.599995 -10.9571,-94.499995 -8.3274,-15 -24.9822,-33.3 -39.55514,-43.3 -19.61321,-13.5 -45.3624,-23.0999999 -73.85087,-27.6999999 -15.23037,-2.40000002 -47.9921,-3.3 -63.00333,-1.80000002 z M 195.89066,103.56226 c 16.65479,4.8 25.42048,16.4 26.62576,34.99999 0.87657,15.8 -3.83499,29.3 -12.81981,36.5 -16.98351,13.7 -51.0601,11.7 -63.87991,-3.7 -13.03895,-15.6 -12.16238,-44.19999 1.86271,-58.39999 10.19011,-10.2 31.0086,-14.300005 48.21125,-9.4 z m -0.98614,184.69999 c 18.29836,4.4 32.32345,19.2 37.25415,39.2 2.52013,10.4 1.64356,33.9 -1.534,43.6 -6.90297,21 -21.36635,33.4 -41.41784,35.7 -23.33863,2.6 -43.71884,-7.4 -53.58023,-26.4 -5.36898,-10.4 -7.34126,-19.7 -7.45083,-34.5 -0.10957,-11.1 0.32871,-14.9 2.30099,-21.3 6.02641,-19.2 17.09308,-30.8 33.96702,-35.8 7.5604,-2.2 22.46206,-2.5 30.46074,-0.5 z"
     id="path2771"
     style="fill:#000000;stroke:none;stroke-width:0.104676" />
</svg>
