<?xml version="1.0" encoding="UTF-8" standalone="no"?>
<!-- Created with Inkscape (http://www.inkscape.org/) -->

<svg
   width="201.58099mm"
   height="180.62221mm"
   viewBox="0 0 201.58099 180.62221"
   version="1.1"
   id="svg5"
   inkscape:version="1.1 (c68e22c387, 2021-05-23)"
   sodipodi:docname="10.svg"
   xmlns:inkscape="http://www.inkscape.org/namespaces/inkscape"
   xmlns:sodipodi="http://sodipodi.sourceforge.net/DTD/sodipodi-0.dtd"
   xmlns="http://www.w3.org/2000/svg"
   xmlns:svg="http://www.w3.org/2000/svg">
  <sodipodi:namedview
     id="namedview7"
     pagecolor="#ffffff"
     bordercolor="#666666"
     borderopacity="1.0"
     inkscape:pageshadow="2"
     inkscape:pageopacity="0.0"
     inkscape:pagecheckerboard="0"
     inkscape:document-units="mm"
     showgrid="false"
     fit-margin-top="0"
     fit-margin-left="0"
     fit-margin-right="0"
     fit-margin-bottom="0"
     inkscape:zoom="0.46324355"
     inkscape:cx="378.85039"
     inkscape:cy="458.72199"
     inkscape:window-width="1360"
     inkscape:window-height="705"
     inkscape:window-x="-8"
     inkscape:window-y="-8"
     inkscape:window-maximized="1"
     inkscape:current-layer="layer1" />
  <defs
     id="defs2" />
  <g
     inkscape:label="Capa 1"
     inkscape:groupmode="layer"
     id="layer1"
     transform="translate(-4.6439103,-26.775429)">
    <path
       d="m 53.468351,28.433484 c -2.293055,6.314722 -4.445,10.442223 -7.796389,14.887223 C 38.193073,53.374873 21.506685,65.157651 8.4539079,69.637929 l -3.8099976,1.305278 v 20.249444 20.214159 l 6.7733297,-2.29305 c 7.196667,-2.46945 14.393333,-5.50334 19.332222,-8.14917 3.633611,-1.97555 10.759723,-6.385272 13.299723,-8.254994 1.023055,-0.776111 1.940277,-1.375834 2.046111,-1.375834 0.105833,0 0.176389,26.105548 0.176389,58.031938 v 58.03194 H 67.791129 89.310571 V 117.08654 26.775429 H 71.706959 54.103351 Z"
       id="path254"
       style="fill:#000000;stroke:none;stroke-width:0.0352778" />
    <path
       d="m 139.95295,27.295665 c -27.90472,3.421945 -44.308863,25.4 -48.824399,65.405 -1.446384,12.453055 -1.622773,34.960275 -0.388051,47.307505 1.869712,19.12055 6.491078,34.21944 13.86412,45.33194 4.23333,6.42056 11.67694,13.19389 17.99166,16.36889 12.59417,6.35 29.95084,7.47889 43.99139,2.82222 6.70278,-2.2225 11.99445,-5.46805 17.25084,-10.51278 14.39333,-13.89944 21.59,-37.1475 22.33083,-72.17833 0.59972,-28.927779 -3.66889,-52.846112 -12.17083,-68.262501 -3.73945,-6.808611 -9.77195,-13.864167 -15.13417,-17.709444 -10.12472,-7.3025 -24.16528,-10.371667 -38.91139,-8.5725 z m 12.17083,37.747222 c 4.26861,2.081389 7.51417,8.501944 9.13695,18.168055 1.37583,8.219723 1.44639,9.983612 1.44639,33.866668 0,20.53167 -0.0706,24.09472 -0.635,28.575 -1.65806,13.335 -4.79778,20.81389 -9.80723,23.495 -1.72861,0.9525 -6.35,0.91722 -8.255,-0.0353 -5.04472,-2.5047 -8.14916,-9.73664 -9.91305,-23.21275 -0.77611,-5.64445 -1.12889,-43.81501 -0.49389,-51.928895 1.27,-16.933334 4.58611,-25.999723 10.58333,-29.033611 1.30528,-0.670278 2.04611,-0.776112 4.05695,-0.705556 1.48166,0.07056 3.03389,0.388056 3.88055,0.811389 z"
       id="path266"
       style="fill:#000000;stroke:none;stroke-width:0.0352778" />
  </g>
</svg>
